<?xml version="1.0" encoding="utf-8"?>
<!-- Generator: Adobe Illustrator 23.0.2, SVG Export Plug-In . SVG Version: 6.00 Build 0)  -->
<svg version="1.1" id="Layer_1" focusable="false" xmlns="http://www.w3.org/2000/svg" xmlns:xlink="http://www.w3.org/1999/xlink"
	 x="0px" y="0px" viewBox="0 0 612 612" style="enable-background:new 0 0 612 612;" xml:space="preserve">
<style type="text/css">
	.st0{fill:#004792;}
	.st1{fill:none;}
	.st2{fill:#FFFFFF;}
</style>
<title>Bootstrap</title>
<path class="st0" d="M612,510c0,56.1-45.9,102-102,102H102C45.9,612,0,566.1,0,510V102C0,45.9,45.9,0,102,0h408
	c56.1,0,102,45.9,102,102V510z"/>
<path class="st1" d="M612,510c0,56.1-45.9,102-102,102H102C45.9,612,0,566.1,0,510V102C0,45.9,45.9,0,102,0h408
	c56.1,0,102,45.9,102,102V510z"/>
<path class="st2" d="M454.2,371c0,35.8-14.8,65.2-44.4,88.3c-28.7,22.3-64.3,33.4-107,33.4c-39.6,0-71.5-8.8-95.8-26.4
	c-21.8-15.7-37.5-38.5-47.2-68.2l-2.1-5.8l78.2-19.4l2.8,9.1c2.6,8.7,8.4,17.1,17.3,25c10,8.9,20.7,14.1,32.2,15.6
	c7.5,0.9,14.6,1.4,21.3,1.4c17.9,0,32-3.3,42.3-9.8s15.4-15,15.4-25.5c0-7.5-2.9-15.3-8.6-23.4c-4.5-6.2-13.8-11.4-27.8-15.4
	c-6.5-1.9-19.5-4.6-38.9-8.1s-33-6.8-40.8-9.9c-20.4-8.4-35.5-16.7-45.3-25c-13.1-11.1-21.6-25.1-25.7-42
	c-2.8-11.7-4.2-22.7-4.2-32.9c0-34.1,12.9-61.7,38.8-82.7c24.6-20.1,55.2-30.1,91.8-30.1c36.1,0,64.7,6,85.7,18s37.4,32,49,60
	l2.6,6.1l-72.6,24.5l-2.3-6.8c-3.9-11.4-12-20.4-24.3-27.1c-11.2-6.1-23.6-9.1-37.1-9.1c-11.7,0-22,2.3-30.8,6.8
	c-8.9,4.5-14.6,11.1-17.3,19.6c-0.9,3.3-1.4,6.4-1.4,9.3c0,10.1,6.3,18.5,18.9,25c9.2,4.8,21.6,8.6,37.1,11.4
	c8.6,1.2,17.1,2.5,25.7,3.7c22.6,4.5,41,10.2,55.1,17.1c18.7,8.9,32.9,20.2,42.5,33.9C448.6,327.6,454.2,347.4,454.2,371z"/>
</svg>
